<svg width="6" height="13" viewBox="0 0 6 13" fill="none" xmlns="http://www.w3.org/2000/svg">
<path d="M5.85349 11.5684C5.89994 11.6191 5.93678 11.6792 5.96192 11.7454C5.98706 11.8116 6 11.8826 6 11.9543C6 12.0259 5.98706 12.0969 5.96192 12.1631C5.93678 12.2293 5.89994 12.2895 5.85349 12.3402C5.80704 12.3908 5.75189 12.431 5.6912 12.4585C5.63051 12.4859 5.56547 12.5 5.49978 12.5C5.43409 12.5 5.36904 12.4859 5.30835 12.4585C5.24766 12.431 5.19252 12.3908 5.14607 12.3402L0.146627 6.88589C0.100144 6.83523 0.0632687 6.77508 0.0381093 6.70887C0.01295 6.64265 0 6.57168 0 6.5C0 6.42832 0.01295 6.35735 0.0381093 6.29113C0.0632687 6.22492 0.100144 6.16476 0.146627 6.11411L5.14607 0.659841C5.23988 0.557496 5.36711 0.5 5.49978 0.5C5.63244 0.5 5.75968 0.557496 5.85349 0.659841C5.9473 0.762185 6 0.900994 6 1.04573C6 1.19047 5.9473 1.32928 5.85349 1.43162L1.20713 6.5L5.85349 11.5684Z" fill="black"/>
</svg>
