<svg width="35" height="27" viewBox="0 0 35 27" fill="none" xmlns="http://www.w3.org/2000/svg">
<path d="M33.4938 4.52864C33.3493 3.96309 33.0723 3.44002 32.6858 3.00258C32.2993 2.56513 31.8143 2.22585 31.2709 2.01273C26.012 -0.0184034 17.642 5.83558e-06 17.1818 5.83558e-06C16.7216 5.83558e-06 8.35159 -0.0184034 3.09273 2.01273C2.5493 2.22585 2.06433 2.56513 1.67783 3.00258C1.29133 3.44002 1.01438 3.96309 0.869829 4.52864C0.4725 6.05966 0 8.85785 0 13.5C0 18.1422 0.4725 20.9403 0.869829 22.4714C1.01416 23.0372 1.29101 23.5606 1.67753 23.9983C2.06404 24.436 2.54912 24.7755 3.09273 24.9888C8.13068 26.9325 16.0159 27 17.0806 27H17.2831C18.3477 27 26.2376 26.9325 31.2709 24.9888C31.8145 24.7755 32.2996 24.436 32.6861 23.9983C33.0726 23.5606 33.3495 23.0372 33.4938 22.4714C33.8911 20.9373 34.3636 18.1422 34.3636 13.5C34.3636 8.85785 33.8911 6.05966 33.4938 4.52864ZM22.4315 14.0109L15.0678 18.9199C14.9754 18.9816 14.868 19.017 14.757 19.0224C14.646 19.0278 14.5356 19.0029 14.4376 18.9505C14.3397 18.898 14.2578 18.82 14.2007 18.7246C14.1437 18.6293 14.1136 18.5202 14.1136 18.4091V8.59091C14.1136 8.47979 14.1437 8.37074 14.2007 8.27539C14.2578 8.18004 14.3397 8.10198 14.4376 8.04953C14.5356 7.99708 14.646 7.97222 14.757 7.9776C14.868 7.98298 14.9754 8.01839 15.0678 8.08006L22.4315 12.9892C22.5156 13.0452 22.5847 13.1211 22.6324 13.2102C22.6802 13.2994 22.7051 13.3989 22.7051 13.5C22.7051 13.6011 22.6802 13.7006 22.6324 13.7898C22.5847 13.8789 22.5156 13.9548 22.4315 14.0109Z" fill="#FF0404"/>
</svg>
